<svg width="129" height="40" viewBox="0 0 129 40" fill="none" xmlns="http://www.w3.org/2000/svg">
<path d="M124.969 40H4.03125C1.81406 40 0 38.2 0 36V4C0 1.8 1.81406 0 4.03125 0H124.969C127.186 0 129 1.8 129 4V36C129 38.2 127.186 40 124.969 40Z" fill="white"/>
<path d="M44.1675 32.3V21.7312H42.2632L38.8501 30.0735H38.7915L35.3711 21.7312H33.4741V32.3H34.9683V24.5217H35.0195L38.2129 32.2195H39.4287L42.6147 24.5217H42.666V32.3H44.1675ZM47.9655 31.1794C47.1159 31.1794 46.5593 30.74 46.5593 30.0662C46.5593 29.407 47.0939 28.9895 48.0388 28.9236L49.9357 28.8064V29.4143C49.9357 30.4177 49.0715 31.1794 47.9655 31.1794ZM47.5261 32.4319C48.5368 32.4319 49.5109 31.8899 49.9577 31.033H49.9943V32.3H51.5104V26.99C51.5104 25.4446 50.3166 24.4558 48.4489 24.4558C46.5446 24.4558 45.3581 25.4812 45.2702 26.8728H46.7644C46.9035 26.1843 47.4748 25.7449 48.3903 25.7449C49.3571 25.7449 49.9357 26.2576 49.9357 27.1145V27.7078L47.8264 27.8323C45.9953 27.9348 44.9626 28.7625 44.9626 30.1101C44.9626 31.4944 46.0173 32.4319 47.5261 32.4319ZM59.2123 27.2463C59.0731 25.7302 57.8646 24.4558 55.8798 24.4558C53.6898 24.4558 52.2543 26.0012 52.2543 28.4475C52.2543 30.9377 53.6898 32.4465 55.8944 32.4465C57.7475 32.4465 59.0585 31.3333 59.227 29.6926H57.7035C57.5204 30.5862 56.8832 31.1208 55.9091 31.1208C54.6786 31.1208 53.8656 30.1394 53.8656 28.4475C53.8656 26.7922 54.6713 25.7742 55.8944 25.7742C56.9271 25.7742 57.5424 26.426 57.7035 27.2463H59.2123ZM69.5696 32.3H71.3055L67.4896 21.7312H65.7171L61.9012 32.3H63.6077L64.5745 29.4436H68.6028L69.5696 32.3ZM66.5667 23.489H66.6106L68.1854 28.1252H64.992L66.5667 23.489ZM75.8433 24.4705C74.73 24.4705 73.8438 25.0344 73.3896 25.9207H73.3604V24.595H71.8296V34.8489H73.4116V31.033H73.4482C73.8877 31.8899 74.7666 32.4319 75.8726 32.4319C77.8062 32.4319 79.0879 30.8865 79.0879 28.4475C79.0879 26.0085 77.7988 24.4705 75.8433 24.4705ZM75.4258 31.0916C74.21 31.0916 73.4043 30.0515 73.4043 28.4475C73.4043 26.8582 74.2173 25.8035 75.4258 25.8035C76.6782 25.8035 77.4619 26.8362 77.4619 28.4475C77.4619 30.0662 76.6782 31.0916 75.4258 31.0916ZM83.8747 24.4705C82.7614 24.4705 81.8752 25.0344 81.4211 25.9207H81.3918V24.595H79.861V34.8489H81.4431V31.033H81.4797C81.9191 31.8899 82.798 32.4319 83.904 32.4319C85.8376 32.4319 87.1193 30.8865 87.1193 28.4475C87.1193 26.0085 85.8303 24.4705 83.8747 24.4705ZM83.4572 31.0916C82.2414 31.0916 81.4357 30.0515 81.4357 28.4475C81.4357 26.8582 82.2487 25.8035 83.4572 25.8035C84.7097 25.8035 85.4934 26.8362 85.4934 28.4475C85.4934 30.0662 84.7097 31.0916 83.4572 31.0916ZM90.211 29.3557C90.3136 31.2673 91.8956 32.4758 94.2394 32.4758C96.7442 32.4758 98.3189 31.238 98.3189 29.2605C98.3189 27.7151 97.4181 26.8435 95.2501 26.3308L94.0855 26.0452C92.7232 25.7083 92.1666 25.2688 92.1666 24.5217C92.1666 23.5842 93.0382 22.9397 94.3126 22.9397C95.587 22.9397 96.4586 23.5769 96.5538 24.6316H98.1505C98.0992 22.8079 96.5685 21.5554 94.3346 21.5554C92.0787 21.5554 90.4894 22.8079 90.4894 24.6316C90.4894 26.1038 91.3902 27.012 93.3312 27.4807L94.7008 27.8103C96.0704 28.1472 96.649 28.6379 96.649 29.4583C96.649 30.4031 95.6896 31.0916 94.3565 31.0916C92.9649 31.0916 91.9469 30.4031 91.8297 29.3557H90.211ZM99.6121 22.7712V24.595H98.4915V25.8474H99.6121V30.2712C99.6121 31.7581 100.22 32.3513 101.78 32.3513C102.132 32.3513 102.483 32.322 102.659 32.2781V31.0256C102.556 31.0476 102.3 31.0623 102.139 31.0623C101.494 31.0623 101.201 30.762 101.201 30.0955V25.8474H102.666V24.595H101.201V22.7712H99.6121ZM106.64 32.4465C108.845 32.4465 110.295 30.9304 110.295 28.4475C110.295 25.9719 108.837 24.4558 106.64 24.4558C104.443 24.4558 102.985 25.9719 102.985 28.4475C102.985 30.9304 104.436 32.4465 106.64 32.4465ZM106.64 31.1428C105.402 31.1428 104.597 30.1614 104.597 28.4475C104.597 26.741 105.402 25.7595 106.64 25.7595C107.878 25.7595 108.684 26.741 108.684 28.4475C108.684 30.1614 107.885 31.1428 106.64 31.1428ZM111.068 32.3H112.65V27.6858C112.65 26.5945 113.28 25.9133 114.298 25.9133C114.606 25.9133 114.884 25.95 115.008 26.0012V24.5291C114.891 24.5071 114.694 24.4705 114.467 24.4705C113.558 24.4705 112.87 25.0051 112.613 25.906H112.577V24.595H111.068V32.3ZM118.426 25.7302C119.532 25.7302 120.279 26.5579 120.315 27.7371H116.463C116.543 26.5725 117.32 25.7302 118.426 25.7302ZM120.308 30.0369C120.096 30.7107 119.429 31.1648 118.528 31.1648C117.261 31.1648 116.455 30.2786 116.455 28.9382V28.843H121.897V28.301C121.897 25.9646 120.564 24.4558 118.426 24.4558C116.25 24.4558 114.859 26.0671 114.859 28.4841C114.859 30.9158 116.228 32.4465 118.492 32.4465C120.257 32.4465 121.59 31.4431 121.809 30.0369H120.308Z" fill="black"/>
<path d="M37.9785 14.7H38.9014L36.3037 7.65405H35.4346L32.8369 14.7H33.7598L34.4678 12.6833H37.2705L37.9785 14.7ZM35.8301 8.79175H35.9082L37.0117 11.9363H34.7266L35.8301 8.79175ZM43.6426 9.43628H42.7441L41.3037 13.7722H41.2256L39.7852 9.43628H38.8867L40.835 14.7H41.6943L43.6426 9.43628ZM46.1914 14.0554C45.5811 14.0554 45.127 13.7429 45.127 13.2058C45.127 12.6785 45.4785 12.4001 46.2793 12.3464L47.6953 12.2537V12.7371C47.6953 13.489 47.0557 14.0554 46.1914 14.0554ZM46.0352 14.7927C46.7383 14.7927 47.3145 14.4851 47.6562 13.9236H47.7344V14.7H48.5352V11.0964C48.5352 10.0027 47.8174 9.34351 46.5332 9.34351C45.4102 9.34351 44.5801 9.90015 44.4678 10.7449H45.3174C45.4346 10.3298 45.874 10.0906 46.5039 10.0906C47.29 10.0906 47.6953 10.447 47.6953 11.0964V11.575L46.1768 11.6677C44.9512 11.741 44.2578 12.283 44.2578 13.2253C44.2578 14.1873 45.0146 14.7927 46.0352 14.7927ZM50.1074 14.7H50.9473V9.43628H50.1074V14.7ZM50.5273 8.36694C50.8496 8.36694 51.1133 8.10327 51.1133 7.78101C51.1133 7.45874 50.8496 7.19507 50.5273 7.19507C50.2051 7.19507 49.9414 7.45874 49.9414 7.78101C49.9414 8.10327 50.2051 8.36694 50.5273 8.36694ZM52.5977 14.7H53.4375V7.34644H52.5977V14.7ZM56.6895 14.0554C56.0791 14.0554 55.625 13.7429 55.625 13.2058C55.625 12.6785 55.9766 12.4001 56.7773 12.3464L58.1934 12.2537V12.7371C58.1934 13.489 57.5537 14.0554 56.6895 14.0554ZM56.5332 14.7927C57.2363 14.7927 57.8125 14.4851 58.1543 13.9236H58.2324V14.7H59.0332V11.0964C59.0332 10.0027 58.3154 9.34351 57.0312 9.34351C55.9082 9.34351 55.0781 9.90015 54.9658 10.7449H55.8154C55.9326 10.3298 56.3721 10.0906 57.002 10.0906C57.7881 10.0906 58.1934 10.447 58.1934 11.0964V11.575L56.6748 11.6677C55.4492 11.741 54.7559 12.283 54.7559 13.2253C54.7559 14.1873 55.5127 14.7927 56.5332 14.7927ZM63.2031 14.7927C64.5361 14.7927 65.4102 13.7136 65.4102 12.0681C65.4102 10.4128 64.541 9.34351 63.2031 9.34351C62.4805 9.34351 61.8408 9.69995 61.5527 10.2664H61.4746V7.34644H60.6348V14.7H61.4355V13.8601H61.5137C61.8457 14.446 62.4707 14.7927 63.2031 14.7927ZM63.0078 10.1003C63.9697 10.1003 64.541 10.8376 64.541 12.0681C64.541 13.2986 63.9697 14.0359 63.0078 14.0359C62.0508 14.0359 61.4551 13.2839 61.4551 12.0681C61.4551 10.8523 62.0508 10.1003 63.0078 10.1003ZM66.7773 14.7H67.6172V7.34644H66.7773V14.7ZM71.3477 10.0857C72.1826 10.0857 72.7393 10.7009 72.7588 11.6335H69.8584C69.9219 10.7009 70.5078 10.0857 71.3477 10.0857ZM72.7344 13.3376C72.5146 13.8015 72.0557 14.0505 71.377 14.0505C70.4834 14.0505 69.9023 13.3914 69.8584 12.3513V12.3123H73.6426V11.99C73.6426 10.3542 72.7783 9.34351 71.3574 9.34351C69.9121 9.34351 68.9844 10.4177 68.9844 12.073C68.9844 13.738 69.8975 14.7927 71.3574 14.7927C72.5098 14.7927 73.3203 14.241 73.5742 13.3376H72.7344ZM79.9463 14.7927C81.4453 14.7927 82.373 13.7576 82.373 12.0681C82.373 10.3738 81.4453 9.34351 79.9463 9.34351C78.4473 9.34351 77.5195 10.3738 77.5195 12.0681C77.5195 13.7576 78.4473 14.7927 79.9463 14.7927ZM79.9463 14.0359C78.9502 14.0359 78.3887 13.3132 78.3887 12.0681C78.3887 10.8181 78.9502 10.1003 79.9463 10.1003C80.9424 10.1003 81.5039 10.8181 81.5039 12.0681C81.5039 13.3132 80.9424 14.0359 79.9463 14.0359ZM83.6914 14.7H84.5312V11.5847C84.5312 10.6619 85.0732 10.1003 85.9131 10.1003C86.7529 10.1003 87.1533 10.5496 87.1533 11.4968V14.7H87.9932V11.2917C87.9932 10.0417 87.334 9.34351 86.1523 9.34351C85.3467 9.34351 84.834 9.6853 84.5703 10.2664H84.4922V9.43628H83.6914V14.7ZM92.7051 8.07397V9.43628H91.8555V10.1394H92.7051V13.3328C92.7051 14.3386 93.1396 14.739 94.2236 14.739C94.3896 14.739 94.5508 14.7195 94.7168 14.6902V13.9822C94.5605 13.9968 94.4775 14.0017 94.3262 14.0017C93.7793 14.0017 93.5449 13.738 93.5449 13.1179V10.1394H94.7168V9.43628H93.5449V8.07397H92.7051ZM96.0352 14.7H96.875V11.5847C96.875 10.696 97.3926 10.1003 98.335 10.1003C99.1309 10.1003 99.5508 10.5642 99.5508 11.4968V14.7H100.391V11.2917C100.391 10.0564 99.6875 9.34351 98.5742 9.34351C97.7686 9.34351 97.2168 9.6853 96.9531 10.2664H96.875V7.34644H96.0352V14.7ZM104.023 10.0857C104.858 10.0857 105.415 10.7009 105.435 11.6335H102.534C102.598 10.7009 103.184 10.0857 104.023 10.0857ZM105.41 13.3376C105.19 13.8015 104.731 14.0505 104.053 14.0505C103.159 14.0505 102.578 13.3914 102.534 12.3513V12.3123H106.318V11.99C106.318 10.3542 105.454 9.34351 104.033 9.34351C102.588 9.34351 101.66 10.4177 101.66 12.073C101.66 13.738 102.573 14.7927 104.033 14.7927C105.186 14.7927 105.996 14.241 106.25 13.3376H105.41Z" fill="black"/>
<circle cx="17.4004" cy="20" r="11.25" stroke="black" stroke-width="1.5"/>
<path d="M10 20.9667V19.0067C10 18.8271 10.1481 18.6803 10.3294 18.6803H13.8064L12.2926 21.2936H10.3294C10.1481 21.2936 10 21.147 10 20.9667ZM12.4768 24.9803L11.3671 25.7292C11.2178 25.8303 11.1123 25.7663 11.133 25.5878L11.281 24.3066C11.3016 24.1281 11.4469 24.0552 11.604 24.1443L12.4628 24.633C12.6196 24.7227 12.6261 24.8795 12.4768 24.9803ZM12.7432 24.2581L11.8845 23.7692C11.7275 23.6799 11.6722 23.4796 11.7635 23.3238L15.7399 16.4573C15.8301 16.3013 16.0335 16.2466 16.1904 16.3371L17.0491 16.8246C17.2062 16.9151 17.2601 17.1156 17.1701 17.2711L13.1938 24.1381C13.1037 24.2939 12.9002 24.3473 12.7432 24.2581ZM15.7696 21.2936L17.2834 18.6803H18.155L19.3842 21.2936H15.7696ZM20.6999 22.0734C20.3562 21.9024 18.644 17.9847 18.2054 16.9625C17.7662 15.9403 16.4403 13.2194 16.8692 13.0076C17.1743 12.8559 18.2697 14.9984 19.0909 16.2847C19.9109 17.5711 21.6257 20.8878 21.8367 21.2655C22.0466 21.6442 21.6347 21.9598 21.4056 22.0543C21.1763 22.1488 21.0435 22.243 20.6999 22.0734ZM21.825 23.8741L21.3077 23.0637C21.2007 22.895 21.2563 22.6869 21.4298 22.598L21.9229 22.3465C22.0967 22.2584 22.3143 22.3299 22.4068 22.5062L22.8149 23.2847C22.9078 23.4607 22.8445 23.6867 22.6771 23.7862L22.3245 23.9953C22.1571 24.0961 21.932 24.0412 21.825 23.8741ZM23.7289 26C23.6208 25.6566 22.7956 25.6339 22.4262 25.1168C22.0555 24.6015 22.3618 24.336 22.4905 24.2134C23.989 23.3763 23.7289 26 23.7289 26ZM24.5 20.9667C24.5 21.147 24.352 21.2935 24.1706 21.2935H22.4301C22.4109 21.1927 22.3798 21.092 22.3272 20.9975C22.2819 20.917 22.1674 20.7001 22.0078 20.3978C21.7775 19.9615 21.4466 19.3375 21.0924 18.6803H24.1704C24.3518 18.6803 24.4999 18.8271 24.4999 19.0067V20.9667H24.5Z" fill="black"/>
</svg>
