<svg width="128" height="40" viewBox="0 0 128 40" fill="none" xmlns="http://www.w3.org/2000/svg">
<path d="M124 40H4C1.8 40 0 38.2 0 36V4C0 1.8 1.8 0 4 0H124C126.2 0 128 1.8 128 4V36C128 38.2 126.2 40 124 40Z" fill="white"/>
<path d="M45.9994 15.1999C45.5994 15.3999 44.6994 15.5999 43.6994 15.5999C42.5994 15.5999 41.5994 15.2999 40.8994 14.5999C40.2994 13.9999 39.8994 12.9999 39.8994 11.7999C39.8994 9.5999 41.3994 7.8999 43.8994 7.8999C44.7994 7.8999 45.3994 8.0999 45.7994 8.1999L45.5994 8.9999C45.1994 8.7999 44.6994 8.6999 43.9994 8.6999C42.1994 8.6999 40.9994 9.7999 40.9994 11.6999C40.9994 13.5999 42.0994 14.6999 43.8994 14.6999C44.4994 14.6999 44.9994 14.5999 45.1994 14.4999V12.2999H43.6994V11.4999H46.0994V15.1999H45.9994Z" fill="black"/>
<path d="M47.9996 13C47.9996 14.3 48.8996 14.9 49.7996 14.9C50.4996 14.9 50.8996 14.8 51.2996 14.6L51.4996 15.3C51.1996 15.5 50.5996 15.6 49.6996 15.6C48.0996 15.6 47.0996 14.5 47.0996 12.9C47.0996 11.3 47.9996 10 49.5996 10C51.2996 10 51.7996 11.5 51.7996 12.5C51.7996 12.7 51.7996 12.9 51.7996 13H47.9996ZM50.8996 12.3C50.8996 11.7 50.5996 10.7 49.5996 10.7C48.5996 10.7 48.1996 11.6 48.0996 12.3H50.8996Z" fill="black"/>
<path d="M54.1994 8.59985V10.0999H55.5994V10.7999H54.1994V13.6999C54.1994 14.3999 54.3994 14.6999 54.8994 14.6999C55.1994 14.6999 55.2994 14.6999 55.4994 14.5999V15.2999C55.2994 15.3999 54.9994 15.3999 54.5994 15.3999C54.0994 15.3999 53.7994 15.2999 53.5994 14.9999C53.2994 14.6999 53.1994 14.1999 53.1994 13.5999V10.6999H52.3994V9.99985H53.1994V8.69985L54.1994 8.59985Z" fill="black"/>
<path d="M60.0994 8.6C60.0994 8.9 59.8994 9.2 59.4994 9.2C59.1994 9.2 58.8994 8.9 58.8994 8.6C58.8994 8.3 59.1994 8 59.4994 8C59.7994 8 60.0994 8.3 60.0994 8.6ZM58.9994 15.5V10.1H59.9994V15.5H58.9994Z" fill="black"/>
<path d="M62.6994 8.59985V10.0999H64.0994V10.7999H62.6994V13.6999C62.6994 14.3999 62.8994 14.6999 63.3994 14.6999C63.6994 14.6999 63.7994 14.6999 63.9994 14.5999V15.2999C63.7994 15.3999 63.4994 15.3999 63.0994 15.3999C62.5994 15.3999 62.2994 15.2999 62.0994 14.9999C61.7994 14.6999 61.6994 14.1999 61.6994 13.5999V10.6999H60.8994V9.99985H61.6994V8.69985L62.6994 8.59985Z" fill="black"/>
<path d="M72.3 12.8C72.3 14.8 70.9 15.7 69.6 15.7C68.2 15.7 67 14.6 67 12.9C67 11.1 68.2 10 69.6 10C71.3 10 72.3 11.1 72.3 12.8ZM68.1 12.8C68.1 14 68.8 14.9 69.7 14.9C70.6 14.9 71.3 14 71.3 12.8C71.3 11.9 70.8 10.7 69.7 10.7C68.6 10.7 68.1 11.8 68.1 12.8Z" fill="black"/>
<path d="M73.5 11.6C73.5 11 73.5 10.6 73.5 10.1H74.4L74.5 11C74.8 10.5 75.4 10 76.3 10C77 10 78.2 10.4 78.2 12.3V15.5H77.2V12.4C77.2 11.5 76.9 10.8 76 10.8C75.4 10.8 74.9 11.3 74.7 11.8C74.7 11.9 74.6 12.1 74.6 12.3V15.5H73.6V11.6H73.5Z" fill="black"/>
<path d="M42.4998 31.7L39.7998 20.7999H41.2998L42.5998 26.2999C42.8998 27.6999 43.1998 28.9999 43.3998 30.0999C43.5998 28.9999 43.8998 27.6999 44.2998 26.2999L45.6998 20.7999H47.1998L48.4998 26.2999C48.7998 27.5999 49.0998 28.9 49.2998 30C49.4998 28.8 49.7998 27.6 50.1998 26.2L51.5998 20.7H52.9998L49.8998 31.5999H48.3998L46.9998 25.9C46.6998 24.5 46.3998 23.3999 46.2998 22.2999C46.0998 23.3999 45.8998 24.4 45.4998 25.9L43.9998 31.5999H42.4998V31.7Z" fill="black"/>
<path d="M55.5002 21.5999C55.5002 22.0999 55.2002 22.5 54.6002 22.5C54.1002 22.5 53.7002 22.0999 53.7002 21.5999C53.7002 21.0999 54.1002 20.7 54.6002 20.7C55.2002 20.8 55.5002 21.0999 55.5002 21.5999ZM53.9002 31.7V23.9H55.3002V31.7H53.9002Z" fill="black"/>
<path d="M57.1 26C57.1 25.2 57.1 24.5 57 23.9H58.3L58.4 25.2C58.8 24.5 59.7 23.7 61 23.7C62.1 23.7 63.7 24.3 63.7 27V31.7H62.3V27.2C62.3 25.9 61.8 24.9 60.5 24.9C59.6 24.9 58.8 25.6 58.6 26.4C58.5 26.6 58.5 26.7999 58.5 27.0999V31.7999H57.1V26Z" fill="black"/>
<path d="M72.5994 20.1999V29.6999C72.5994 30.3999 72.5994 31.1999 72.6994 31.6999H71.3994L71.2994 30.2999C70.8994 31.1999 69.8994 31.7999 68.6994 31.7999C66.7994 31.7999 65.3994 30.1999 65.3994 27.7999C65.3994 25.1999 66.9994 23.5999 68.8994 23.5999C70.0994 23.5999 70.8994 24.1999 71.1994 24.7999V20.0999H72.5994V20.1999ZM71.1994 26.9999C71.1994 26.7999 71.1994 26.5999 71.0994 26.3999C70.8994 25.4999 70.0994 24.7999 69.0994 24.7999C67.5994 24.7999 66.7994 26.0999 66.7994 27.7999C66.7994 29.3999 67.5994 30.6999 69.0994 30.6999C69.9994 30.6999 70.8994 30.0999 71.1994 28.9999C71.1994 28.7999 71.2994 28.5999 71.2994 28.3999V26.9999H71.1994Z" fill="black"/>
<path d="M81.4994 27.7C81.4994 30.6 79.4994 31.9 77.5994 31.9C75.4994 31.9 73.8994 30.3 73.8994 27.9C73.8994 25.3 75.5994 23.7 77.7994 23.7C79.9994 23.7 81.4994 25.3 81.4994 27.7ZM75.3994 27.7999C75.3994 29.4999 76.3994 30.7999 77.7994 30.7999C79.0994 30.7999 80.1994 29.4999 80.1994 27.7999C80.1994 26.4999 79.4994 24.7999 77.8994 24.7999C76.0994 24.6999 75.3994 26.2999 75.3994 27.7999Z" fill="black"/>
<path d="M83.2994 23.7998L84.2994 27.7998C84.4994 28.6998 84.6994 29.4998 84.8994 30.2998C85.0994 29.4998 85.2994 28.6998 85.5994 27.7998L86.8994 23.7998H88.0994L89.2994 27.6998C89.5994 28.5998 89.7994 29.4998 89.9994 30.2998C90.0994 29.4998 90.2994 28.6998 90.5994 27.7998L91.6994 23.8998H93.0994L90.5994 31.6998H89.2994L88.0994 27.9998C87.7994 27.0998 87.5994 26.3998 87.3994 25.3998C87.1994 26.2998 86.9994 27.0998 86.6994 27.9998L85.3994 31.6998H84.1994L81.8994 23.8998H83.2994V23.7998Z" fill="black"/>
<path d="M94.1998 30.2C94.5998 30.5 95.3998 30.7999 96.0998 30.7999C97.0998 30.7999 97.5998 30.2999 97.5998 29.5999C97.5998 28.8999 97.1998 28.5 96.1998 28.2C94.7998 27.7 94.0998 26.9 94.0998 26C94.0998 24.7 95.0998 23.7 96.7998 23.7C97.5998 23.7 98.2998 23.9 98.6998 24.2L98.2998 25.2C97.9998 25 97.3998 24.7 96.6998 24.7C95.8998 24.7 95.3998 25.1999 95.3998 25.7999C95.3998 26.3999 95.8998 26.6999 96.8998 27.0999C98.1998 27.5999 98.8998 28.3 98.8998 29.5C98.8998 30.9 97.7998 31.7999 95.9998 31.7999C95.0998 31.7999 94.3998 31.5999 93.7998 31.2999L94.1998 30.2Z" fill="black"/>
<path d="M105.499 22.5L103.699 23.5L103.399 22.4L105.699 21.2H106.899V31.7H105.499V22.5Z" fill="black"/>
<path d="M116.7 26.2999C116.7 29.8999 115.4 31.7999 113.1 31.7999C111.1 31.7999 109.7 29.8999 109.6 26.3999C109.6 22.8999 111.1 20.8999 113.2 20.8999C115.5 20.9999 116.7 22.9999 116.7 26.2999ZM111 26.4999C111 29.1999 111.8 30.7999 113.1 30.7999C114.5 30.7999 115.2 29.0999 115.2 26.3999C115.2 23.7999 114.5 22.0999 113.1 22.0999C111.9 22.0999 111 23.5999 111 26.4999Z" fill="black"/>
<path d="M18.2002 29.3L9.2002 28V20.4H18.2002V29.3ZM18.2002 19.7H9.2002V12.5L18.2002 11.2V19.7ZM30.5002 31L18.9002 29.3V20.4H30.5002V31ZM30.5002 19.7H18.9002V11.2L30.5002 9.5V19.7Z" fill="black"/>
</svg>
