<svg width="147" height="137" viewBox="0 0 147 137" fill="none" xmlns="http://www.w3.org/2000/svg">
<path d="M61.7993 110.34C54.7674 110.34 49.0465 116.096 49.0465 123.171C49.0465 130.246 54.7674 136.003 61.7993 136.003C68.8312 136.003 74.5521 130.246 74.5521 123.171C74.5518 116.096 68.8309 110.34 61.7993 110.34ZM61.7993 128.838C58.6936 128.838 56.167 126.295 56.167 123.171C56.167 120.046 58.6939 117.504 61.7993 117.504C64.9047 117.504 67.4315 120.046 67.4315 123.171C67.4315 126.296 64.9047 128.838 61.7993 128.838Z" fill="#BDBDBD"/>
<path d="M106.531 110.34C99.4994 110.34 93.7785 116.096 93.7785 123.171C93.7785 130.246 99.4994 136.003 106.531 136.003C113.563 136.003 119.284 130.246 119.284 123.171C119.284 116.096 113.563 110.34 106.531 110.34ZM106.531 128.838C103.426 128.838 100.899 126.295 100.899 123.171C100.899 120.046 103.426 117.504 106.531 117.504C109.637 117.504 112.164 120.046 112.164 123.171C112.164 126.296 109.637 128.838 106.531 128.838Z" fill="#BDBDBD"/>
<path d="M144.4 26.8233C143.042 25.1467 141.03 24.1852 138.88 24.1852H27.9816L25.742 13.246C25.2744 10.964 23.7275 9.04797 21.6031 8.11986L5.97628 1.29512C4.17222 0.506644 2.07559 1.33957 1.29308 3.15419C0.509711 4.96937 1.33754 7.07919 3.14075 7.86653L18.7679 14.6915L35.9946 98.8284C36.6731 102.142 39.6061 104.547 42.9687 104.547H128.263C130.229 104.547 131.823 102.943 131.823 100.965C131.823 98.9863 130.229 97.3826 128.263 97.3826H42.969L40.8735 87.148H128.922C132.284 87.148 135.218 84.743 135.896 81.4295L145.854 32.7943C146.288 30.6765 145.758 28.4998 144.4 26.8233ZM128.922 79.9842H39.4067L29.4487 31.3493L138.88 31.3496L128.922 79.9842Z" fill="#BDBDBD"/>
<path fill-rule="evenodd" clip-rule="evenodd" d="M6.37593 0.381276L22.0025 7.2059C24.4259 8.26465 26.187 10.4481 26.7193 13.0458L28.7958 23.1879H138.88C141.332 23.1879 143.629 24.2861 145.175 26.1958C146.721 28.1046 147.325 30.5852 146.832 32.9944L136.873 81.6295C136.101 85.403 132.762 88.1454 128.922 88.1454H42.096L43.7831 96.3852H128.263C130.786 96.3852 132.821 98.4415 132.821 100.965C132.821 103.488 130.786 105.544 128.263 105.544H42.9688C39.1281 105.544 35.7901 102.802 35.0174 99.0285L17.8944 15.3984L2.74161 8.78055C0.431494 7.77183 -0.62201 5.07486 0.377127 2.75933M6.37593 0.381276C4.06156 -0.630073 1.37693 0.441212 0.377127 2.75933L6.37593 0.381276ZM5.57681 2.209C4.28319 1.64361 2.77448 2.23823 2.2092 3.54907C1.64181 4.86381 2.24391 6.3866 3.54008 6.95254L19.6415 13.9847L36.9719 98.6284C37.5563 101.482 40.0842 103.55 42.9688 103.55H128.263C129.672 103.55 130.826 102.398 130.826 100.965C130.826 99.5312 129.672 98.3799 128.263 98.3799H42.155L39.6511 86.1507H128.922C131.806 86.1507 134.335 84.083 134.919 81.2295L144.877 32.5944C145.251 30.768 144.795 28.8951 143.625 27.4511C142.456 26.0074 140.728 25.1826 138.88 25.1826H27.1677L24.7648 13.4461C24.3619 11.48 23.0292 9.83133 21.2039 9.03384L5.57681 2.209ZM28.2263 30.352L140.103 30.3523L129.736 80.9816H38.5928L28.2263 30.352ZM30.6712 32.3467L40.2208 78.9868H128.108L137.658 32.347L30.6712 32.3467ZM48.049 123.171C48.049 115.551 54.2106 109.343 61.7994 109.343C69.3879 109.343 75.5494 115.551 75.5497 123.171C75.5497 130.791 69.3881 137 61.7994 137C54.2106 137 48.049 130.791 48.049 123.171ZM61.7994 111.337C55.3244 111.337 50.0441 116.641 50.0441 123.171C50.0441 129.702 55.3244 135.005 61.7994 135.005C68.2744 135.005 73.5546 129.702 73.5546 123.171C73.5543 116.641 68.2741 111.337 61.7994 111.337ZM92.781 123.171C92.781 115.551 98.9426 109.343 106.531 109.343C114.12 109.343 120.281 115.551 120.282 123.171C120.282 130.791 114.12 137 106.531 137C98.9426 137 92.781 130.791 92.781 123.171ZM106.531 111.337C100.056 111.337 94.7761 116.641 94.7761 123.171C94.7761 129.702 100.056 135.005 106.531 135.005C113.006 135.005 118.287 129.702 118.287 123.171C118.286 116.641 113.006 111.337 106.531 111.337ZM61.7994 118.501C59.2508 118.501 57.1647 120.591 57.1647 123.171C57.1647 125.75 59.2506 127.84 61.7994 127.84C64.348 127.84 66.4341 125.751 66.4341 123.171C66.4341 120.591 64.3479 118.501 61.7994 118.501ZM55.1696 123.171C55.1696 119.501 58.1371 116.506 61.7994 116.506C65.4617 116.506 68.4292 119.501 68.4292 123.171C68.4292 126.841 65.4616 129.835 61.7994 129.835C58.1368 129.835 55.1696 126.84 55.1696 123.171ZM106.531 118.501C103.983 118.501 101.897 120.591 101.897 123.171C101.897 125.75 103.983 127.84 106.531 127.84C109.08 127.84 111.166 125.751 111.166 123.171C111.166 120.591 109.08 118.501 106.531 118.501ZM99.9016 123.171C99.9016 119.501 102.869 116.506 106.531 116.506C110.194 116.506 113.161 119.501 113.161 123.171C113.161 126.841 110.194 129.835 106.531 129.835C102.869 129.835 99.9016 126.84 99.9016 123.171Z" fill="white"/>
<path fill-rule="evenodd" clip-rule="evenodd" d="M108.865 26.102L96.8943 85.9437L92.0034 84.9657L103.974 25.124L108.865 26.102Z" fill="#BDBDBD"/>
<path fill-rule="evenodd" clip-rule="evenodd" d="M72.4543 26.102L60.4837 85.9437L55.5928 84.9657L67.5634 25.124L72.4543 26.102Z" fill="#BDBDBD"/>
<path fill-rule="evenodd" clip-rule="evenodd" d="M137.843 58.5259H31.1045V53.5391H137.843V58.5259Z" fill="#BDBDBD"/>
</svg>
