<svg width="75" height="75" viewBox="0 0 75 75" fill="none" xmlns="http://www.w3.org/2000/svg">
<path d="M22.5 60C18.375 60 15.0375 63.375 15.0375 67.5C15.0375 71.625 18.375 75 22.5 75C26.625 75 30 71.625 30 67.5C30 63.375 26.625 60 22.5 60ZM0 0V7.5H7.5L21 35.9625L15.9375 45.15C15.3375 46.2 15 47.4375 15 48.75C15 52.875 18.375 56.25 22.5 56.25H67.5V48.75H24.075C23.55 48.75 23.1375 48.3375 23.1375 47.8125L23.25 47.3625L26.625 41.25H54.5625C57.375 41.25 59.85 39.7125 61.125 37.3875L74.55 13.05C74.85 12.525 75 11.8875 75 11.25C75 9.1875 73.3125 7.5 71.25 7.5H15.7875L12.2625 0H0ZM60 60C55.875 60 52.5375 63.375 52.5375 67.5C52.5375 71.625 55.875 75 60 75C64.125 75 67.5 71.625 67.5 67.5C67.5 63.375 64.125 60 60 60Z" fill="#BDBDBD"/>
</svg>
